<svg viewBox="-50 -50 540 722" fill="none" xmlns="http://www.w3.org/2000/svg">
<path d="M0 0 C1.41371384 -0.01469078 1.41371384 -0.01469078 2.85598755 -0.02967834 C42.31430514 -0.35540658 42.31430514 -0.35540658 61.03515625 4.23828125 C61.9276709 4.45258789 62.82018555 4.66689453 63.73974609 4.88769531 C96.63156459 13.02038536 128.38764214 27.85674272 154.03515625 50.23828125 C155.12957031 51.17027344 155.12957031 51.17027344 156.24609375 52.12109375 C158.89731241 54.43760706 161.47897534 56.81818593 164.03515625 59.23828125 C164.65841797 59.82754395 165.28167969 60.41680664 165.92382812 61.02392578 C176.39942773 71.01142389 185.77268628 81.34436535 194.03515625 93.23828125 C194.53853516 93.96176758 195.04191406 94.68525391 195.56054688 95.43066406 C217.86390861 127.99815312 232.91354654 168.10274838 233.2734375 207.86328125 C233.28318604 208.7599501 233.29293457 209.65661896 233.30297852 210.58045959 C233.46922749 229.82450577 233.42904871 248.39906113 229.03515625 267.23828125 C228.8532373 268.06360352 228.67131836 268.88892578 228.48388672 269.73925781 C219.16345143 311.43550364 197.66075343 346.09986605 168.62890625 376.78125 C146.73583 400.40881292 133.3828826 430.20798791 128.6418457 461.93261719 C127.3924229 469.46844863 124.5423075 476.03190297 118.16015625 480.61328125 C117.54398437 481.07476562 116.9278125 481.53625 116.29296875 482.01171875 C110.82527196 484.98205922 105.2295722 485.53174846 99.11672974 485.49897766 C98.34939101 485.50280321 97.58205229 485.50662876 96.79146087 485.51057023 C94.23606574 485.52083814 91.68089791 485.51691996 89.12548828 485.51293945 C87.28686313 485.51728938 85.4482398 485.52247346 83.60961914 485.52842712 C78.62609673 485.54179847 73.64265025 485.54239784 68.65911341 485.53986382 C64.49419416 485.5387928 60.3292902 485.54368086 56.16437423 485.54846925 C46.3359709 485.55955808 36.50760578 485.5600054 26.67919922 485.55395508 C16.55050615 485.54791563 6.421952 485.56022704 -3.70671737 485.58152515 C-12.41266859 485.5991564 -21.11857566 485.60514008 -29.82454407 485.6018874 C-35.01986668 485.60007677 -40.21509018 485.6026888 -45.41039658 485.61660194 C-50.29748981 485.62920036 -55.1843669 485.62721709 -60.07145691 485.61419106 C-61.86084695 485.61183008 -63.6502523 485.61454273 -65.43962479 485.62281418 C-87.48006774 485.71731816 -87.48006774 485.71731816 -96.25 477.27734375 C-101.36069617 471.20038839 -102.31148135 463.68951682 -103.71484375 456.11328125 C-110.07711576 422.21104872 -126.31766388 393.82796963 -149.9375 369.1015625 C-163.31197529 355.09661088 -173.86313737 339.2995607 -182.96484375 322.23828125 C-183.36155273 321.49562012 -183.75826172 320.75295898 -184.16699219 319.98779297 C-198.05589294 293.49643197 -207.01932169 262.55974981 -207.16796875 232.53515625 C-207.17366882 231.61728333 -207.1793689 230.6994104 -207.1852417 229.75372314 C-207.19464678 227.81401707 -207.20120771 225.87429533 -207.20507812 223.93457031 C-207.2146786 221.03810728 -207.24570107 218.14238758 -207.27734375 215.24609375 C-207.34916073 202.64826635 -206.29210569 190.61860619 -203.96484375 178.23828125 C-203.76600586 177.17963867 -203.56716797 176.12099609 -203.36230469 175.03027344 C-202.86287033 172.58386087 -202.3130928 170.1622347 -201.71484375 167.73828125 C-201.50287354 166.87557617 -201.29090332 166.01287109 -201.07250977 165.12402344 C-192.76707871 132.44945257 -176.95811936 102.70106451 -154.96484375 77.23828125 C-154.18496094 76.32820313 -153.40507812 75.418125 -152.6015625 74.48046875 C-150.43568099 72.01761993 -148.22139681 69.61832726 -145.96484375 67.23828125 C-145.49643066 66.74263672 -145.02801758 66.24699219 -144.54541016 65.73632812 C-136.60310448 57.3909498 -128.20379177 50.10621747 -118.96484375 43.23828125 C-118.40716309 42.81450195 -117.84948242 42.39072266 -117.27490234 41.95410156 C-107.71461542 34.69531354 -97.60362251 28.77688264 -86.96484375 23.23828125 C-86.29678711 22.88523926 -85.62873047 22.53219727 -84.94042969 22.16845703 C-59.27311531 8.75699637 -29.02973709 0.24841508 0 0 Z " fill="#F2C336" transform="translate(206.96484375,-0.23828125)"/>
<path d="M0 0 C1.11063449 -0.00445668 1.11063449 -0.00445668 2.24370605 -0.0090034 C4.72000278 -0.01766162 7.19625099 -0.01919621 9.67256165 -0.02069092 C11.45015567 -0.02532117 13.2277487 -0.03034611 15.00534058 -0.03573608 C19.83200791 -0.04884304 24.65866135 -0.05530184 29.48534369 -0.05974674 C32.50313805 -0.0626805 35.52092863 -0.06678591 38.53872108 -0.07125092 C47.98725545 -0.08492199 57.43578116 -0.09459029 66.88432473 -0.09845281 C77.7788969 -0.10293131 88.67334348 -0.12047124 99.56787747 -0.1494534 C107.99694216 -0.17109576 116.42597157 -0.18115847 124.85506374 -0.18249393 C129.88557919 -0.18354021 134.91597651 -0.18941042 139.94646263 -0.20731354 C144.68167841 -0.22383816 149.41668782 -0.22592845 154.15192223 -0.21717453 C155.88445591 -0.21640648 157.6170009 -0.22071614 159.34950638 -0.23063278 C171.91742379 -0.29831866 182.97860378 0.03175106 192.55659485 9.14044189 C198.18084887 15.36576123 200.08899014 22.19052526 199.86128235 30.52716064 C198.95576128 38.29374516 195.51772991 43.83534696 190.14253235 49.35137939 C180.54480778 55.991497 170.53350097 55.71375741 159.32221985 55.65802002 C157.48477119 55.66344744 155.64732689 55.67057356 153.80989075 55.67926025 C148.84291822 55.69742284 143.87627978 55.69045534 138.90930176 55.67774391 C133.69829951 55.66757954 128.48732485 55.67701911 123.27632141 55.68328857 C114.52724602 55.69055498 105.77830592 55.6810037 97.0292511 55.66192627 C86.9305652 55.64015951 76.83220239 55.64721159 66.73352432 55.66923189 C58.0453122 55.68741458 49.35719703 55.68993019 40.66897202 55.67947721 C35.48761961 55.67325806 30.30641881 55.67236314 25.12507629 55.68562317 C20.25263429 55.69722284 15.38060671 55.68908097 10.50820923 55.66604614 C8.72569464 55.66078099 6.94314486 55.66223502 5.16064453 55.6710968 C-5.22170093 55.71793351 -14.19965751 55.46013437 -23.02934265 49.35137939 C-29.05254692 43.17036191 -32.54168958 36.8297037 -32.88090515 28.07794189 C-32.47701964 20.01285316 -30.09910408 13.84546878 -24.5410614 7.93341064 C-17.24760591 1.69933975 -9.35060829 -0.0117975 0 0 Z " fill="#B2B3B4" transform="translate(136.4434051513672,498.85955810546875)"/>
<path d="M0 0 C1.10647385 -0.00335861 2.21294769 -0.00671722 3.35295105 -0.01017761 C7.00581998 -0.01966554 10.65864296 -0.02162973 14.31152344 -0.02270508 C16.85732034 -0.02591944 19.40311706 -0.02928364 21.94891357 -0.03279114 C27.28512067 -0.03877721 32.62131072 -0.0406745 37.95751953 -0.04003906 C44.10478142 -0.03943914 50.25195531 -0.04997738 56.39919496 -0.06578273 C62.33440782 -0.08049328 68.26959412 -0.0840255 74.20482635 -0.08342934 C76.71970733 -0.08460634 79.23458901 -0.08901236 81.74945831 -0.0967617 C85.27445177 -0.10660568 88.79922136 -0.10366592 92.32421875 -0.09765625 C93.35417465 -0.10327576 94.38413055 -0.10889526 95.44529724 -0.11468506 C105.66395033 -0.07062022 115.44913134 0.80353857 123.05761719 8.23120117 C129.94729153 15.67749193 131.59835085 21.18523391 131.29199219 31.34448242 C130.4560917 39.90586319 126.44288442 45.35263027 119.98339844 50.77026367 C115.86883907 53.51330325 112.27601621 54.3955051 107.36222839 54.41268921 C105.70325783 54.42548416 105.70325783 54.42548416 104.01077271 54.4385376 C102.80701996 54.43763123 101.60326721 54.43672485 100.36303711 54.43579102 C99.087686 54.44250824 97.8123349 54.44922546 96.49833679 54.45614624 C93.00645227 54.47378341 89.51466584 54.47850068 86.02274108 54.47977781 C83.83848224 54.48120142 81.65424817 54.48547502 79.4699955 54.49077225 C71.84220426 54.50926593 64.21448284 54.51744381 56.58666992 54.51586914 C49.48897243 54.51466835 42.39157934 54.53575984 35.29395884 54.56735647 C29.19015969 54.5935555 23.08645972 54.6042349 16.9826048 54.60295832 C13.3415524 54.60244969 9.70077054 54.60807748 6.0597744 54.62931442 C1.99528767 54.65237491 -2.06852232 54.64315387 -6.13305664 54.63110352 C-7.33073669 54.64234253 -8.52841675 54.65358154 -9.76239014 54.66516113 C-17.69421536 54.6054541 -23.10823756 53.55388144 -29.28613281 48.25073242 C-36.13549974 40.06815539 -37.67678155 34.48204237 -37.42285156 23.74291992 C-36.71945771 16.38126378 -33.38502627 11.67878303 -28.07128906 6.68432617 C-19.65223297 0.18019264 -10.20580476 -0.00445558 0 0 Z " fill="#B2B3B4" transform="translate(173.0791015625,567.854736328125)"/>
<path d="M0 0 C3.04172389 1.58751327 5.45151837 3.90303675 7 7 C7.01953125 9.0234375 7.01953125 9.0234375 6.8125 11.375 C6.75707031 12.14585938 6.70164062 12.91671875 6.64453125 13.7109375 C5.77198521 16.80979798 4.49081801 17.97413469 2 20 C-0.06875498 21.11033311 -2.17869892 22.14546963 -4.3125 23.125 C-42.30930021 41.31640177 -71.17248114 76.26095378 -85.16845703 115.58740234 C-90.90394014 132.22804947 -93.47142827 149.12163591 -94.63598633 166.65991211 C-95.15172558 169.97537875 -96.55052089 171.77320081 -99 174 C-101.25984109 175.12992055 -102.79726487 175.29799956 -105.3125 175.4375 C-106.07175781 175.49808594 -106.83101562 175.55867187 -107.61328125 175.62109375 C-110.61848171 174.83905304 -112.15546933 173.36730033 -114.01196289 170.91088867 C-115.91402428 167.232254 -115.68798416 163.49507172 -115.5625 159.4375 C-115.54590332 158.51710937 -115.52930664 157.59671875 -115.51220703 156.6484375 C-115.18001614 146.52780297 -113.38776887 136.81820032 -111 127 C-110.78569336 126.11779785 -110.57138672 125.2355957 -110.35058594 124.32666016 C-107.16611896 111.59574524 -102.78546563 99.76860598 -97 88 C-96.68836914 87.35369629 -96.37673828 86.70739258 -96.05566406 86.04150391 C-78.82298284 50.61877028 -49.24310146 22.65359552 -15 3.875 C-14.30608154 3.48425293 -13.61216309 3.09350586 -12.8972168 2.69091797 C-8.46153088 0.33571494 -5.13619075 -0.62484072 0 0 Z " fill="#FEFEFC" transform="translate(149,52)"/>
<path d="M0 0 C3.83473102 1.48160062 4.81233863 2.64478384 6.75 6.3125 C7.88584317 9.66323736 8.64909185 12.49091845 9 16 C9.07605469 16.71414062 9.15210937 17.42828125 9.23046875 18.1640625 C9.47925025 22.1849095 9.39682591 25.15409538 7 28.5 C3.76472067 31.19606611 2.03569061 31.95111316 -2.0703125 32.17578125 C-5.00568196 31.90838929 -6.75032456 30.85267389 -9 29 C-13.35047407 22.47428889 -14.02228324 13.66712433 -13 6 C-9.50940639 0.18234399 -6.60809839 -0.44800667 0 0 Z " fill="#FEFDFA" transform="translate(49,239)"/>
<path d="M0 0 C0.66 0.33 1.32 0.66 2 1 C0.71451591 2.33929505 -0.57858155 3.67128643 -1.875 5 C-2.59429687 5.7425 -3.31359375 6.485 -4.0546875 7.25 C-6 9 -6 9 -8 9 C-6.4169423 4.7257442 -3.49431596 2.73468206 0 0 Z " fill="#CACBCC" transform="translate(117,503)"/>
</svg>
